<svg xmlns="http://www.w3.org/2000/svg" viewBox="0 0 64 64" width="64" height="64">
  <ellipse cx="30" cy="61" rx="11" ry="2" fill="rgba(0,0,0,0.1)"/>
  <ellipse cx="30" cy="44" rx="15" ry="13" fill="#f5a442"/>
  <ellipse cx="30" cy="46" rx="10" ry="10" fill="#fce4b8"/>
  <ellipse cx="30" cy="22" rx="13" ry="12" fill="#f5a442"/>
  <path d="M 19 14 L 20 5 L 25 13 Z" fill="#f5a442"/>
  <path d="M 35 13 L 40 5 L 41 14 Z" fill="#f5a442"/>
  <path d="M 21 13 L 21 7 L 24 13 Z" fill="#ffcce0"/>
  <path d="M 36 13 L 39 7 L 40 13 Z" fill="#ffcce0"/>
  <ellipse cx="30" cy="26" rx="9" ry="8" fill="#fce4b8"/>
  <ellipse cx="25" cy="22" rx="3.5" ry="4" fill="white"/>
  <ellipse cx="26" cy="22" rx="2" ry="2.5" fill="#4a8c3f"/>
  <ellipse cx="26" cy="22" rx="1.2" ry="2" fill="#1a1a1a"/>
  <circle cx="27" cy="20.5" r="0.9" fill="white"/>
  <ellipse cx="35" cy="22" rx="3.5" ry="4" fill="white"/>
  <ellipse cx="36" cy="22" rx="2" ry="2.5" fill="#4a8c3f"/>
  <ellipse cx="36" cy="22" rx="1.2" ry="2" fill="#1a1a1a"/>
  <circle cx="37" cy="20.5" r="0.9" fill="white"/>
  <ellipse cx="30" cy="27" rx="1.8" ry="1.3" fill="#ff8fa0"/>
  <line x1="17" y1="25" x2="23" y2="25.5" stroke="#c09060" stroke-width="0.4"/>
  <line x1="17" y1="27.5" x2="23" y2="27.5" stroke="#c09060" stroke-width="0.4"/>
  <line x1="37" y1="25.5" x2="43" y2="25" stroke="#c09060" stroke-width="0.4"/>
  <line x1="37" y1="27.5" x2="43" y2="27.5" stroke="#c09060" stroke-width="0.4"/>
  <ellipse cx="21" cy="58" rx="5" ry="3" fill="#f5a442"/>
  <ellipse cx="39" cy="56" rx="5" ry="3" fill="#f5a442"/>
  <path d="M 45 42 Q 52 36 50 28 Q 48 33 46 38" stroke="#f5a442" stroke-width="4" fill="none" stroke-linecap="round"/>
  <!-- butterfly -->
  <path d="M 52 14 Q 56 10 58 14 Q 56 15 54 14 Z" fill="#ff7eb3"/>
  <path d="M 52 14 Q 56 18 58 14 Q 56 13 54 14 Z" fill="#a0d8ef"/>
  <circle cx="54" cy="14" r="0.7" fill="#333"/>
</svg>
