<svg xmlns="http://www.w3.org/2000/svg" viewBox="0 0 64 64" width="64" height="64">
  <ellipse cx="30" cy="61" rx="11" ry="2" fill="rgba(0,0,0,0.1)"/>
  <ellipse cx="30" cy="43" rx="15" ry="13" fill="#f5a442"/>
  <ellipse cx="30" cy="45" rx="10" ry="10" fill="#fce4b8"/>
  <ellipse cx="30" cy="21" rx="13" ry="12" fill="#f5a442"/>
  <path d="M 19 13 L 20 4 L 25 12 Z" fill="#f5a442"/>
  <path d="M 35 12 L 40 4 L 41 13 Z" fill="#f5a442"/>
  <path d="M 21 12 L 21 6 L 24 12 Z" fill="#ffcce0"/>
  <path d="M 36 12 L 39 6 L 40 12 Z" fill="#ffcce0"/>
  <ellipse cx="30" cy="25" rx="9" ry="8" fill="#fce4b8"/>
  <ellipse cx="25" cy="21" rx="3.5" ry="4" fill="white"/>
  <ellipse cx="26.5" cy="21" rx="2" ry="2.5" fill="#4a8c3f"/>
  <ellipse cx="26.5" cy="21" rx="1.2" ry="2" fill="#1a1a1a"/>
  <circle cx="27.5" cy="19.5" r="0.9" fill="white"/>
  <ellipse cx="35" cy="21" rx="3.5" ry="4" fill="white"/>
  <ellipse cx="36.5" cy="21" rx="2" ry="2.5" fill="#4a8c3f"/>
  <ellipse cx="36.5" cy="21" rx="1.2" ry="2" fill="#1a1a1a"/>
  <circle cx="37.5" cy="19.5" r="0.9" fill="white"/>
  <ellipse cx="30" cy="26" rx="1.8" ry="1.3" fill="#ff8fa0"/>
  <line x1="17" y1="24" x2="23" y2="24.5" stroke="#c09060" stroke-width="0.4"/>
  <line x1="17" y1="26.5" x2="23" y2="26.5" stroke="#c09060" stroke-width="0.4"/>
  <line x1="37" y1="24.5" x2="43" y2="24" stroke="#c09060" stroke-width="0.4"/>
  <line x1="37" y1="26.5" x2="43" y2="26.5" stroke="#c09060" stroke-width="0.4"/>
  <ellipse cx="23" cy="56" rx="5" ry="3" fill="#f5a442"/>
  <ellipse cx="37" cy="58" rx="5" ry="3" fill="#f5a442"/>
  <path d="M 45 41 Q 54 36 52 26 Q 50 32 47 38" stroke="#f5a442" stroke-width="4" fill="none" stroke-linecap="round"/>
  <!-- butterfly -->
  <path d="M 54 10 Q 58 6 60 10 Q 58 11 56 10 Z" fill="#a0d8ef"/>
  <path d="M 54 10 Q 58 14 60 10 Q 58 9 56 10 Z" fill="#ff7eb3"/>
  <circle cx="56" cy="10" r="0.7" fill="#333"/>
</svg>
