<svg xmlns="http://www.w3.org/2000/svg" viewBox="0 0 64 64" width="64" height="64">
  <ellipse cx="32" cy="61" rx="10" ry="2" fill="rgba(0,0,0,0.1)"/>
  <ellipse cx="32" cy="44" rx="16" ry="13" fill="#f5a442"/>
  <ellipse cx="32" cy="46" rx="11" ry="10" fill="#fce4b8"/>
  <ellipse cx="32" cy="20" rx="14" ry="13" fill="#f5a442"/>
  <path d="M 20 12 L 21 3 L 27 11 Z" fill="#f5a442"/>
  <path d="M 37 11 L 43 3 L 44 12 Z" fill="#f5a442"/>
  <path d="M 22 11 L 22 5 L 26 11 Z" fill="#ffcce0"/>
  <path d="M 38 11 L 42 5 L 42 11 Z" fill="#ffcce0"/>
  <ellipse cx="32" cy="24" rx="10" ry="9" fill="#fce4b8"/>
  <ellipse cx="27" cy="20" rx="4" ry="4.5" fill="white"/>
  <ellipse cx="27" cy="20" rx="2.2" ry="2.8" fill="#4a8c3f"/>
  <ellipse cx="27" cy="20" rx="1.3" ry="2.2" fill="#1a1a1a"/>
  <circle cx="28" cy="18.5" r="1.1" fill="white"/>
  <ellipse cx="37" cy="20" rx="4" ry="4.5" fill="white"/>
  <ellipse cx="37" cy="20" rx="2.2" ry="2.8" fill="#4a8c3f"/>
  <ellipse cx="37" cy="20" rx="1.3" ry="2.2" fill="#1a1a1a"/>
  <circle cx="38" cy="18.5" r="1.1" fill="white"/>
  <ellipse cx="32" cy="26" rx="2" ry="1.5" fill="#ff8fa0"/>
  <path d="M 30 28 Q 32 30 34 28" stroke="#c07060" stroke-width="0.7" fill="none"/>
  <line x1="18" y1="23" x2="25" y2="24" stroke="#c09060" stroke-width="0.4"/>
  <line x1="18" y1="26" x2="25" y2="26" stroke="#c09060" stroke-width="0.4"/>
  <line x1="39" y1="24" x2="46" y2="23" stroke="#c09060" stroke-width="0.4"/>
  <line x1="39" y1="26" x2="46" y2="26" stroke="#c09060" stroke-width="0.4"/>
  <ellipse cx="24" cy="56" rx="5" ry="3" fill="#f5a442"/>
  <ellipse cx="40" cy="54" rx="5" ry="3" fill="#f5a442"/>
  <path d="M 48 43 Q 58 38 56 28 Q 53 33 50 40" stroke="#f5a442" stroke-width="4" fill="none" stroke-linecap="round"/>
</svg>
