<svg xmlns="http://www.w3.org/2000/svg" viewBox="0 0 64 64" width="64" height="64">
  <ellipse cx="32" cy="61" rx="10" ry="2" fill="rgba(0,0,0,0.1)"/>
  <ellipse cx="32" cy="45" rx="16" ry="13" fill="#f5a442"/>
  <ellipse cx="32" cy="47" rx="11" ry="10" fill="#fce4b8"/>
  <ellipse cx="32" cy="21" rx="14" ry="13" fill="#f5a442"/>
  <path d="M 20 13 L 21 4 L 27 12 Z" fill="#f5a442"/>
  <path d="M 37 12 L 43 4 L 44 13 Z" fill="#f5a442"/>
  <path d="M 22 12 L 22 6 L 26 12 Z" fill="#ffcce0"/>
  <path d="M 38 12 L 42 6 L 42 12 Z" fill="#ffcce0"/>
  <ellipse cx="32" cy="25" rx="10" ry="9" fill="#fce4b8"/>
  <ellipse cx="27" cy="21" rx="4" ry="4.5" fill="white"/>
  <ellipse cx="27.5" cy="21" rx="2.2" ry="2.8" fill="#4a8c3f"/>
  <ellipse cx="27.5" cy="21" rx="1.3" ry="2.2" fill="#1a1a1a"/>
  <circle cx="28.5" cy="19.5" r="1.1" fill="white"/>
  <ellipse cx="37" cy="21" rx="4" ry="4.5" fill="white"/>
  <ellipse cx="36.5" cy="21" rx="2.2" ry="2.8" fill="#4a8c3f"/>
  <ellipse cx="36.5" cy="21" rx="1.3" ry="2.2" fill="#1a1a1a"/>
  <circle cx="37.5" cy="19.5" r="1.1" fill="white"/>
  <ellipse cx="32" cy="27" rx="2" ry="1.5" fill="#ff8fa0"/>
  <path d="M 30 29 Q 32 31 34 29" stroke="#c07060" stroke-width="0.7" fill="none"/>
  <line x1="18" y1="24" x2="25" y2="25" stroke="#c09060" stroke-width="0.4"/>
  <line x1="18" y1="27" x2="25" y2="27" stroke="#c09060" stroke-width="0.4"/>
  <line x1="39" y1="25" x2="46" y2="24" stroke="#c09060" stroke-width="0.4"/>
  <line x1="39" y1="27" x2="46" y2="27" stroke="#c09060" stroke-width="0.4"/>
  <!-- Paws raised -->
  <ellipse cx="22" cy="54" rx="5" ry="3" fill="#f5a442"/>
  <ellipse cx="42" cy="52" rx="5" ry="3" fill="#f5a442"/>
  <path d="M 48 42 Q 56 34 52 26 Q 50 32 48 38" stroke="#f5a442" stroke-width="4" fill="none" stroke-linecap="round"/>
</svg>
