<svg xmlns="http://www.w3.org/2000/svg" viewBox="0 0 64 64" width="64" height="64">
  <ellipse cx="32" cy="61" rx="12" ry="2.5" fill="rgba(0,0,0,0.12)"/>
  <ellipse cx="32" cy="44" rx="16" ry="14" fill="#f5a442"/>
  <ellipse cx="32" cy="46" rx="11" ry="11" fill="#fce4b8"/>
  <ellipse cx="32" cy="22" rx="14" ry="13" fill="#f5a442"/>
  <path d="M 20 14 L 22 6 L 27 13 Z" fill="#f5a442"/>
  <path d="M 37 13 L 42 6 L 44 14 Z" fill="#f5a442"/>
  <path d="M 22 13 L 23 8 L 26 13 Z" fill="#ffcce0"/>
  <path d="M 38 13 L 41 8 L 42 13 Z" fill="#ffcce0"/>
  <ellipse cx="32" cy="26" rx="10" ry="9" fill="#fce4b8"/>
  <ellipse cx="27" cy="22" rx="3.5" ry="4" fill="white"/>
  <ellipse cx="27.5" cy="22.5" rx="2" ry="2.5" fill="#4a8c3f"/>
  <ellipse cx="27.5" cy="22.5" rx="1.2" ry="2" fill="#1a1a1a"/>
  <circle cx="28.5" cy="21" r="1" fill="white"/>
  <ellipse cx="37" cy="22" rx="3.5" ry="4" fill="white"/>
  <ellipse cx="36.5" cy="22.5" rx="2" ry="2.5" fill="#4a8c3f"/>
  <ellipse cx="36.5" cy="22.5" rx="1.2" ry="2" fill="#1a1a1a"/>
  <circle cx="37.5" cy="21" r="1" fill="white"/>
  <ellipse cx="32" cy="27" rx="2" ry="1.5" fill="#ff8fa0"/>
  <path d="M 32 28.5 L 30 30.5" stroke="#c07060" stroke-width="0.6" fill="none"/>
  <path d="M 32 28.5 L 34 30.5" stroke="#c07060" stroke-width="0.6" fill="none"/>
  <line x1="18" y1="25" x2="25" y2="26" stroke="#c09060" stroke-width="0.4"/>
  <line x1="18" y1="28" x2="25" y2="28" stroke="#c09060" stroke-width="0.4"/>
  <line x1="39" y1="26" x2="46" y2="25" stroke="#c09060" stroke-width="0.4"/>
  <line x1="39" y1="28" x2="46" y2="28" stroke="#c09060" stroke-width="0.4"/>
  <ellipse cx="23" cy="58" rx="5" ry="3" fill="#f5a442"/>
  <ellipse cx="41" cy="56" rx="5" ry="3" fill="#f5a442"/>
  <path d="M 48 44 Q 56 36 52 28 Q 50 34 48 40" stroke="#f5a442" stroke-width="4" fill="none" stroke-linecap="round"/>
</svg>
